# xmcd CD database file
#
# Track frame offsets:
#	150
#	15512
#	32872
#	47987
#	66487
#	88378
#	107681
#	129623
#	144577
#	164358
#	177828
#	197549
#
# Disc length: 2964 seconds
#
# Revision: 0
# Processed by: cddbd v1.5.2PL0 Copyright (c) Steve Scherf et al.
# Submitted via: CDex 1.51
#
DISCID=ac0b920c
DTITLE=Numa, Robbie - Love is Blind
DYEAR=2007
DGENRE=Rhythmic Soul
TTITLE0=A Game Called Love
TTITLE1=A Little Lovin'
TTITLE2=Bar Game
TTITLE3=Love is Blind
TTITLE4=Dreams Come True
TTITLE5=Don't Wanna Say Good-bye
TTITLE6=Iraq, Iraq
TTITLE7=Here We Go Again
TTITLE8=You Can Have it All
TTITLE9=Party Girl
TTITLE10=High Maintenance Woman
TTITLE11=Traffic Jam
EXTD=YEAR: 2007
EXTT0=
EXTT1=
EXTT2=
EXTT3=
EXTT4=
EXTT5=
EXTT6=
EXTT7=
EXTT8=
EXTT9=
EXTT10=
EXTT11=
PLAYORDER=
